# xmcd
#
# Track frame offsets:
#	150
#	30193
#	50384
#	62397
#	83671
#	100756
#	114851
#	128543
#	158517
#	173305
#	204207
#	219761
#
# Disc length: 3115 seconds
#
# Revision: 0
# Processed by: cddbd v1.5.2PL0 Copyright (c) Steve Scherf et al.
# Submitted via: EasyCDDAExtractor 7.1.3.1
#
DISCID=730c290c
DTITLE=Diane/Schuur/Mz Cam/Burke Nebster - Jazz Blues Vol 1 - How High The Moo
DTITLE=n
DYEAR=1999
DGENRE=Blues
TTITLE0=Caugut A Touch Of Your Love
TTITLE1=God Bless The Child
TTITLE2=Christopher Columbus
TTITLE3=The Man I Love
TTITLE4=Them There Eyes
TTITLE5=Down The Road A-Plece
TTITLE6=Sweet Georgia Brown
TTITLE7=Round Midnight
TTITLE8=Black Coffee
TTITLE9=Every Time We Say Goodbye
TTITLE10=Love For Sale
TTITLE11=How High the Moon
EXTD=
EXTT0=
EXTT1=
EXTT2=
EXTT3=
EXTT4=
EXTT5=
EXTT6=
EXTT7=
EXTT8=
EXTT9=
EXTT10=
EXTT11=
PLAYORDER=
